{
    "asset" : {
        "generator" : "Khronos glTF Blender I/O v3.3.32",
        "version" : "2.0"
    },
    "extensionsUsed" : [
        "KHR_texture_transform",
        "KHR_materials_transmission",
        "KHR_materials_specular",
        "KHR_materials_ior",
        "KHR_materials_emissive_strength"
    ],
    "extensionsRequired" : [
        "KHR_texture_transform"
    ],
    "scene" : 0,
    "scenes" : [
        {
            "name" : "Scene",
            "nodes" : [
                0,
                1
            ]
        }
    ],
    "nodes" : [
        {
            "mesh" : 0,
            "name" : "Circle.004",
            "rotation" : [
                -0.7071068286895752,
                0,
                0,
                0.7071068286895752
            ],
            "scale" : [
                3.9148943424224854,
                3.9148943424224854,
                3.9148943424224854
            ],
            "translation" : [
                18.143526077270508,
                4.752781867980957,
                -11.133622169494629
            ]
        },
        {
            "mesh" : 1,
            "name" : "Z3_Lowpoly_OBJ.001",
            "rotation" : [
                0.7071068286895752,
                0,
                0,
                0.7071067094802856
            ],
            "scale" : [
                0.371258944272995,
                0.371258944272995,
                0.371258944272995
            ]
        }
    ],
    "materials" : [
        {
            "alphaCutoff" : 0.5,
            "alphaMode" : "MASK",
            "doubleSided" : true,
            "name" : "Tire Texture",
            "pbrMetallicRoughness" : {
                "baseColorTexture" : {
                    "extensions" : {
                        "KHR_texture_transform" : {
                            "offset" : [
                                0.009999999776482582,
                                0.03000001236796379
                            ],
                            "scale" : [
                                0.949999988079071,
                                0.949999988079071
                            ]
                        }
                    },
                    "index" : 0
                },
                "metallicFactor" : 0,
                "roughnessFactor" : 0
            }
        },
        {
            "doubleSided" : true,
            "name" : "Car Main",
            "pbrMetallicRoughness" : {
                "baseColorFactor" : [
                    0.35054680705070496,
                    0.00038921806844882667,
                    0,
                    1
                ],
                "metallicFactor" : 0.800000011920929,
                "roughnessFactor" : 0.5
            }
        },
        {
            "alphaMode" : "BLEND",
            "doubleSided" : true,
            "extensions" : {
                "KHR_materials_transmission" : {
                    "transmissionFactor" : 0.7246376872062683
                },
                "KHR_materials_specular" : {
                    "specularColorFactor" : [
                        1.1268370456760233,
                        1.1268370456760233,
                        1.1268370456760233
                    ]
                },
                "KHR_materials_ior" : {
                    "ior" : 1.4500000476837158
                }
            },
            "name" : "Glass",
            "pbrMetallicRoughness" : {
                "metallicFactor" : 0,
                "roughnessFactor" : 0
            }
        },
        {
            "doubleSided" : true,
            "name" : "Cloth",
            "pbrMetallicRoughness" : {
                "baseColorFactor" : [
                    0,
                    0,
                    0,
                    1
                ],
                "metallicFactor" : 0,
                "roughnessFactor" : 1
            }
        },
        {
            "doubleSided" : true,
            "emissiveFactor" : [
                1,
                1,
                1
            ],
            "extensions" : {
                "KHR_materials_emissive_strength" : {
                    "emissiveStrength" : 12.529435381293297
                }
            },
            "name" : "Bulb",
            "pbrMetallicRoughness" : {
                "baseColorFactor" : [
                    0,
                    0,
                    0,
                    1
                ]
            }
        },
        {
            "doubleSided" : true,
            "name" : "Steel",
            "pbrMetallicRoughness" : {
                "baseColorFactor" : [
                    0.6038146615028381,
                    0.6038146615028381,
                    0.6038146615028381,
                    1
                ],
                "roughnessFactor" : 0.10000000149011612
            }
        },
        {
            "doubleSided" : true,
            "name" : "Windshield",
            "pbrMetallicRoughness" : {
                "baseColorFactor" : [
                    0,
                    0,
                    0,
                    1
                ],
                "roughnessFactor" : 0.02173912525177002
            }
        },
        {
            "doubleSided" : true,
            "name" : "Tire",
            "pbrMetallicRoughness" : {
                "baseColorFactor" : [
                    0.0005154294776730239,
                    0.0005154294776730239,
                    0.0005154294776730239,
                    1
                ],
                "metallicFactor" : 0.5,
                "roughnessFactor" : 0.5
            }
        }
    ],
    "meshes" : [
        {
            "name" : "Circle.001",
            "primitives" : [
                {
                    "attributes" : {
                        "POSITION" : 0,
                        "NORMAL" : 1,
                        "TEXCOORD_0" : 2
                    },
                    "indices" : 3,
                    "material" : 0
                }
            ]
        },
        {
            "name" : "Z3_Lowpoly_OBJ.001",
            "primitives" : [
                {
                    "attributes" : {
                        "POSITION" : 4,
                        "NORMAL" : 5,
                        "TEXCOORD_0" : 6
                    },
                    "indices" : 7,
                    "material" : 1
                },
                {
                    "attributes" : {
                        "POSITION" : 8,
                        "NORMAL" : 9,
                        "TEXCOORD_0" : 10
                    },
                    "indices" : 11,
                    "material" : 2
                },
                {
                    "attributes" : {
                        "POSITION" : 12,
                        "NORMAL" : 13,
                        "TEXCOORD_0" : 14
                    },
                    "indices" : 15,
                    "material" : 3
                },
                {
                    "attributes" : {
                        "POSITION" : 16,
                        "NORMAL" : 17,
                        "TEXCOORD_0" : 18
                    },
                    "indices" : 19,
                    "material" : 4
                },
                {
                    "attributes" : {
                        "POSITION" : 20,
                        "NORMAL" : 21,
                        "TEXCOORD_0" : 22
                    },
                    "indices" : 23,
                    "material" : 5
                },
                {
                    "attributes" : {
                        "POSITION" : 24,
                        "NORMAL" : 25,
                        "TEXCOORD_0" : 26
                    },
                    "indices" : 27,
                    "material" : 6
                },
                {
                    "attributes" : {
                        "POSITION" : 28,
                        "NORMAL" : 29,
                        "TEXCOORD_0" : 30
                    },
                    "indices" : 31,
                    "material" : 7
                }
            ]
        }
    ],
    "textures" : [
        {
            "sampler" : 0,
            "source" : 0
        }
    ],
    "images" : [
        {
            "mimeType" : "image/png",
            "name" : "New Project",
            "uri" : "New%20Project.png"
        }
    ],
    "accessors" : [
        {
            "bufferView" : 0,
            "componentType" : 5126,
            "count" : 768,
            "max" : [
                1,
                9.70587873171427e-24,
                1
            ],
            "min" : [
                -10.103309631347656,
                -5.689355373382568,
                -1.0000001192092896
            ],
            "type" : "VEC3"
        },
        {
            "bufferView" : 1,
            "componentType" : 5126,
            "count" : 768,
            "type" : "VEC3"
        },
        {
            "bufferView" : 2,
            "componentType" : 5126,
            "count" : 768,
            "type" : "VEC2"
        },
        {
            "bufferView" : 3,
            "componentType" : 5123,
            "count" : 1488,
            "type" : "SCALAR"
        },
        {
            "bufferView" : 4,
            "componentType" : 5126,
            "count" : 27439,
            "max" : [
                83.15245056152344,
                34.82589340209961,
                -6.160934925079346
            ],
            "min" : [
                -77.7942123413086,
                -34.89166259765625,
                -48.37202072143555
            ],
            "type" : "VEC3"
        },
        {
            "bufferView" : 5,
            "componentType" : 5126,
            "count" : 27439,
            "type" : "VEC3"
        },
        {
            "bufferView" : 6,
            "componentType" : 5126,
            "count" : 27439,
            "type" : "VEC2"
        },
        {
            "bufferView" : 7,
            "componentType" : 5123,
            "count" : 56595,
            "type" : "SCALAR"
        },
        {
            "bufferView" : 8,
            "componentType" : 5126,
            "count" : 1089,
            "max" : [
                83.15835571289062,
                33.90436935424805,
                -19.26727294921875
            ],
            "min" : [
                -76.01543426513672,
                -33.97014236450195,
                -48.11659240722656
            ],
            "type" : "VEC3"
        },
        {
            "bufferView" : 9,
            "componentType" : 5126,
            "count" : 1089,
            "type" : "VEC3"
        },
        {
            "bufferView" : 10,
            "componentType" : 5126,
            "count" : 1089,
            "type" : "VEC2"
        },
        {
            "bufferView" : 11,
            "componentType" : 5123,
            "count" : 2322,
            "type" : "SCALAR"
        },
        {
            "bufferView" : 12,
            "componentType" : 5126,
            "count" : 11656,
            "max" : [
                50.796722412109375,
                27.360118865966797,
                -12.662336349487305
            ],
            "min" : [
                -24.806344985961914,
                -27.42392349243164,
                -50.9188232421875
            ],
            "type" : "VEC3"
        },
        {
            "bufferView" : 13,
            "componentType" : 5126,
            "count" : 11656,
            "type" : "VEC3"
        },
        {
            "bufferView" : 14,
            "componentType" : 5126,
            "count" : 11656,
            "type" : "VEC2"
        },
        {
            "bufferView" : 15,
            "componentType" : 5123,
            "count" : 26940,
            "type" : "SCALAR"
        },
        {
            "bufferView" : 16,
            "componentType" : 5126,
            "count" : 663,
            "max" : [
                82.2725601196289,
                25.07805633544922,
                -20.141891479492188
            ],
            "min" : [
                79.77658081054688,
                -25.143829345703125,
                -24.39990997314453
            ],
            "type" : "VEC3"
        },
        {
            "bufferView" : 17,
            "componentType" : 5126,
            "count" : 663,
            "type" : "VEC3"
        },
        {
            "bufferView" : 18,
            "componentType" : 5126,
            "count" : 663,
            "type" : "VEC2"
        },
        {
            "bufferView" : 19,
            "componentType" : 5123,
            "count" : 1692,
            "type" : "SCALAR"
        },
        {
            "bufferView" : 20,
            "componentType" : 5126,
            "count" : 118398,
            "max" : [
                86.52303314208984,
                34.893470764160156,
                -7.112924098968506
            ],
            "min" : [
                -78.24267578125,
                -34.959259033203125,
                -48.813087463378906
            ],
            "type" : "VEC3"
        },
        {
            "bufferView" : 21,
            "componentType" : 5126,
            "count" : 118398,
            "type" : "VEC3"
        },
        {
            "bufferView" : 22,
            "componentType" : 5126,
            "count" : 118398,
            "type" : "VEC2"
        },
        {
            "bufferView" : 23,
            "componentType" : 5125,
            "count" : 181377,
            "type" : "SCALAR"
        },
        {
            "bufferView" : 24,
            "componentType" : 5126,
            "count" : 1358,
            "max" : [
                7.3424201011657715,
                27.57064437866211,
                -32.450111389160156
            ],
            "min" : [
                -28.685943603515625,
                -27.636415481567383,
                -48.91544723510742
            ],
            "type" : "VEC3"
        },
        {
            "bufferView" : 25,
            "componentType" : 5126,
            "count" : 1358,
            "type" : "VEC3"
        },
        {
            "bufferView" : 26,
            "componentType" : 5126,
            "count" : 1358,
            "type" : "VEC2"
        },
        {
            "bufferView" : 27,
            "componentType" : 5123,
            "count" : 3000,
            "type" : "SCALAR"
        },
        {
            "bufferView" : 28,
            "componentType" : 5126,
            "count" : 87616,
            "max" : [
                62.01108169555664,
                32.35523986816406,
                0.2540319859981537
            ],
            "min" : [
                -60.459434509277344,
                -32.45493698120117,
                -26.200637817382812
            ],
            "type" : "VEC3"
        },
        {
            "bufferView" : 29,
            "componentType" : 5126,
            "count" : 87616,
            "type" : "VEC3"
        },
        {
            "bufferView" : 30,
            "componentType" : 5126,
            "count" : 87616,
            "type" : "VEC2"
        },
        {
            "bufferView" : 31,
            "componentType" : 5125,
            "count" : 222528,
            "type" : "SCALAR"
        }
    ],
    "bufferViews" : [
        {
            "buffer" : 0,
            "byteLength" : 9216,
            "byteOffset" : 0,
            "target" : 34962
        },
        {
            "buffer" : 0,
            "byteLength" : 9216,
            "byteOffset" : 9216,
            "target" : 34962
        },
        {
            "buffer" : 0,
            "byteLength" : 6144,
            "byteOffset" : 18432,
            "target" : 34962
        },
        {
            "buffer" : 0,
            "byteLength" : 2976,
            "byteOffset" : 24576,
            "target" : 34963
        },
        {
            "buffer" : 0,
            "byteLength" : 329268,
            "byteOffset" : 27552,
            "target" : 34962
        },
        {
            "buffer" : 0,
            "byteLength" : 329268,
            "byteOffset" : 356820,
            "target" : 34962
        },
        {
            "buffer" : 0,
            "byteLength" : 219512,
            "byteOffset" : 686088,
            "target" : 34962
        },
        {
            "buffer" : 0,
            "byteLength" : 113190,
            "byteOffset" : 905600,
            "target" : 34963
        },
        {
            "buffer" : 0,
            "byteLength" : 13068,
            "byteOffset" : 1018792,
            "target" : 34962
        },
        {
            "buffer" : 0,
            "byteLength" : 13068,
            "byteOffset" : 1031860,
            "target" : 34962
        },
        {
            "buffer" : 0,
            "byteLength" : 8712,
            "byteOffset" : 1044928,
            "target" : 34962
        },
        {
            "buffer" : 0,
            "byteLength" : 4644,
            "byteOffset" : 1053640,
            "target" : 34963
        },
        {
            "buffer" : 0,
            "byteLength" : 139872,
            "byteOffset" : 1058284,
            "target" : 34962
        },
        {
            "buffer" : 0,
            "byteLength" : 139872,
            "byteOffset" : 1198156,
            "target" : 34962
        },
        {
            "buffer" : 0,
            "byteLength" : 93248,
            "byteOffset" : 1338028,
            "target" : 34962
        },
        {
            "buffer" : 0,
            "byteLength" : 53880,
            "byteOffset" : 1431276,
            "target" : 34963
        },
        {
            "buffer" : 0,
            "byteLength" : 7956,
            "byteOffset" : 1485156,
            "target" : 34962
        },
        {
            "buffer" : 0,
            "byteLength" : 7956,
            "byteOffset" : 1493112,
            "target" : 34962
        },
        {
            "buffer" : 0,
            "byteLength" : 5304,
            "byteOffset" : 1501068,
            "target" : 34962
        },
        {
            "buffer" : 0,
            "byteLength" : 3384,
            "byteOffset" : 1506372,
            "target" : 34963
        },
        {
            "buffer" : 0,
            "byteLength" : 1420776,
            "byteOffset" : 1509756,
            "target" : 34962
        },
        {
            "buffer" : 0,
            "byteLength" : 1420776,
            "byteOffset" : 2930532,
            "target" : 34962
        },
        {
            "buffer" : 0,
            "byteLength" : 947184,
            "byteOffset" : 4351308,
            "target" : 34962
        },
        {
            "buffer" : 0,
            "byteLength" : 725508,
            "byteOffset" : 5298492,
            "target" : 34963
        },
        {
            "buffer" : 0,
            "byteLength" : 16296,
            "byteOffset" : 6024000,
            "target" : 34962
        },
        {
            "buffer" : 0,
            "byteLength" : 16296,
            "byteOffset" : 6040296,
            "target" : 34962
        },
        {
            "buffer" : 0,
            "byteLength" : 10864,
            "byteOffset" : 6056592,
            "target" : 34962
        },
        {
            "buffer" : 0,
            "byteLength" : 6000,
            "byteOffset" : 6067456,
            "target" : 34963
        },
        {
            "buffer" : 0,
            "byteLength" : 1051392,
            "byteOffset" : 6073456,
            "target" : 34962
        },
        {
            "buffer" : 0,
            "byteLength" : 1051392,
            "byteOffset" : 7124848,
            "target" : 34962
        },
        {
            "buffer" : 0,
            "byteLength" : 700928,
            "byteOffset" : 8176240,
            "target" : 34962
        },
        {
            "buffer" : 0,
            "byteLength" : 890112,
            "byteOffset" : 8877168,
            "target" : 34963
        }
    ],
    "samplers" : [
        {
            "magFilter" : 9729,
            "minFilter" : 9987
        }
    ],
    "buffers" : [
        {
            "byteLength" : 9767280,
            "uri" : "mercedes2 - Copy.bin"
        }
    ]
}
