{
    "asset" : {
        "generator" : "Khronos glTF Blender I/O v3.4.50",
        "version" : "2.0"
    },
    "scene" : 0,
    "scenes" : [
        {
            "name" : "Scene",
            "nodes" : [
                0
            ]
        }
    ],
    "nodes" : [
        {
            "mesh" : 0,
            "name" : "Right_Tibia",
            "scale" : [
                0.009999999776482582,
                0.009999999776482582,
                0.009999999776482582
            ]
        }
    ],
    "meshes" : [
        {
            "name" : "Right_Tibia",
            "primitives" : [
                {
                    "attributes" : {
                        "POSITION" : 0,
                        "NORMAL" : 1
                    },
                    "indices" : 2
                }
            ]
        }
    ],
    "accessors" : [
        {
            "bufferView" : 0,
            "componentType" : 5126,
            "count" : 628926,
            "max" : [
                -10.755900382995605,
                716.8364868164062,
                130.939697265625
            ],
            "min" : [
                -102.88839721679688,
                321.83929443359375,
                54.65959930419922
            ],
            "type" : "VEC3"
        },
        {
            "bufferView" : 1,
            "componentType" : 5126,
            "count" : 628926,
            "type" : "VEC3"
        },
        {
            "bufferView" : 2,
            "componentType" : 5125,
            "count" : 630384,
            "type" : "SCALAR"
        }
    ],
    "bufferViews" : [
        {
            "buffer" : 0,
            "byteLength" : 7547112,
            "byteOffset" : 0,
            "target" : 34962
        },
        {
            "buffer" : 0,
            "byteLength" : 7547112,
            "byteOffset" : 7547112,
            "target" : 34962
        },
        {
            "buffer" : 0,
            "byteLength" : 2521536,
            "byteOffset" : 15094224,
            "target" : 34963
        }
    ],
    "buffers" : [
        {
            "byteLength" : 17615760,
            "uri" : "Right_Tibia.bin"
        }
    ]
}
